<svg xmlns="http://www.w3.org/2000/svg" xmlns:xlink="http://www.w3.org/1999/xlink" viewBox="0 0 2463.44 2010.45">
  <defs>
    <style>
      .cls-9{fill:url(#linear-gradient-7);}
      .cls-10{fill:url(#linear-gradient-8);}
    </style>
    <linearGradient id="linear-gradient-7" x1="1821.39" y1="1148.24" x2="1821.39" y2="2010.45" gradientUnits="userSpaceOnUse">
      <stop offset="0" stop-color="#a2d45e"/>
      <stop offset="0.35" stop-color="#8cb955"/>
      <stop offset="0.75" stop-color="#78a14d"/>
      <stop offset="1" stop-color="#71984a"/>
    </linearGradient>
    <linearGradient id="linear-gradient-8" x1="1228.97" y1="1141.73" x2="1228.97" y2="2008.36" xlink:href="#linear-gradient-7"/>
  </defs>
  <title>river-hills_3
  </title>
<path class="cls-9" d="M2463.44,1183.8c-5.06.72-10.13,1.45-15.21,2.22-1.8-2.25,7.37-7-4.91-4.67,2.43-.68,1.82-3.56,2.32-9.95-2.46.26-8.18,4.58-1.94-3-3.47,1.58-2.93-.69-1.12-7.24a9.59,9.59,0,0,1-4.61,2.68c.87-2.44,1.67-4.82,3.5-6.73-7.42,4.53,2.19-4.53-5.7-.18-4.88,10.18,2.09,10-8.28,18.46l4.14.2c-6.66,5.61-1.23-1.14,1.5,5.68-3.37-2.72-5.94,5.24-7.82-4.72.25,1.21-6.73,5.7-7.15,2.14,3.35-2,4.28-.2,3-12.44-.37.33-11.93,9.44-2.06-2.93-5.13,1.66-3.34,1.6-.83-8.77-6.06,5-6,2.83-2.16-4.44-8.67,5.51,4-5.74-6.13-.42.36,1.08.21,11.71-4.89,7.17,1,2.45.46,2.25,4.81,8.25-9.52-2.49,2.83-1.08-10,6.37,1.74-.13,3.4.41,5.14.21-7.64,7.11-.92-1.71,1.86,6.82-3-.64-11.92-2.27-.31,3.54-9.64-4.46-11.38.83-5.16,6.09,4.51,4.33-10.51-.49-3.69,3.53-1.89.82-5.93,3.72-5.37-3.65,1.36-.42.12.53,4.74-1.27-6.72-2,6.06-6.51-6.75-5.7,2.32-1.5,4-7.26,1.27-6.14,3.12-8.39-10.3,3.69-1.36-6.68-8.77,4.23,5.75-11.48-6.44-4.59,6.34-9.23-1.13-2.63,1-7.28,5.49-4.87-12,4.29-3.32,13.25-9.78-1.45,3.4-.7-9.34,5.58l4.79.21a12.36,12.36,0,0,1-3.14,2.29c.71,0,2.24.22,4.38,2.08,3.08,3.26-14-2,.41,4.11-.12.33-6.19,2.64-6.18-3.68-3.12,1.55-.7-.91-4.61,2.68.87-2.44,1.67-4.82,3.5-6.73-7.42,4.53,2.19-4.53-5.7-.18-4.88,10.18,2.09,10-8.28,18.46l4.14.2c-6.66,5.61-1.23-1.14,1.5,5.68-3.37-2.72-5.94,5.24-7.82-4.72.25,1.21-6.73,5.7-7.15,2.14,3.35-2,4.27-.2,3-12.44-.37.33-11.93,9.44-2.06-2.93-5.13,1.66-3.34,1.6-.84-8.77-6.05,5-6,2.83-2.15-4.44-8.67,5.51,4-5.74-6.13-.42.35,1.08.21,11.71-4.89,7.17,1,2.45.45,2.25,4.81,8.25-9.52-2.49,2.83-1.08-10,6.37,1.73-.13,3.4.41,5.14.21-7.64,7.11-.92-1.71,1.85,6.82-3-.64-11.92-2.27-.3,3.54-9.64-4.46-11.38.83-5.17,6.09,3.55,3.92-7.6.19-5.19,3-.64-.82-3.6,3.82-3.86-3.08,1.36-.42.12.53,4.73-1.27-6.71-2,6.06-6.51-6.74-5.7,2.32-1.5,4-7.26,1.27-6.14,3.12-8.39-10.3,3.69-1.36-6.68-8.77,4.23,5.75-11.48-6.44-4.59,6.34-9.23-1.13-2.62,1-7.28,5.49-4.87-12,4.29-3.32,13.25-9.78-1.45,3.4-.7-9.34,5.58l4.79.21c-7.52,5.93-1.27-1.58,1.67,5.75-1.1-.16-10.84-2.6-8.39.53-3.94,1.17-2,2-.89-11-3.45,2.27-8,4.64-1.91-2.43-3.47,1.58-2.93-.69-1.12-7.24a9.57,9.57,0,0,1-4.61,2.67c.87-2.43,1.67-4.81,3.5-6.73-7.42,4.54,2.19-4.53-5.7-.17-4.88,10.18,2.09,10-8.28,18.46l4.14.2c-6.66,5.61-1.23-1.14,1.5,5.68-3.37-2.72-5.94,5.24-7.82-4.72.25,1.21-6.73,5.7-7.15,2.14,3.35-2,4.28-.2,3-12.45-.37.33-11.93,9.45-2.06-2.92-5.13,1.66-3.34,1.6-.83-8.77-6.06,5-6,2.83-2.16-4.44-8.67,5.51,4-5.75-6.13-.42.36,1.08.21,11.71-4.89,7.17,1,2.45.46,2.25,4.81,8.25-9.52-2.49,2.83-1.08-10,6.36,1.74-.12,3.4.41,5.14.21-7.64,7.11-.92-1.7,1.86,6.83-3-.64-11.92-2.28-.31,3.54-9.64-4.46-11.38.83-5.16,6.09,4.51,4.32-10.51-.49-3.69,3.53-1.89.82-5.93,3.71-5.37-3.65,1.36-.42.12.53,4.74-1.27-6.73-2,6.1-6.52-6.81-5.7,3-1.81,4.61-10.82-.95-3.91,9.95-12.09-10.26,3.19.92-8.91-8.77,4.22,5.75-11.48-6.44-4.59,6.34-9.23-1.13-2.63,1-7.29,5.49-4.86-12,4.3-3.32,13.26-9.78-1.45,3.41-.71-9.34,5.58l4.79.21a12.64,12.64,0,0,1-3.14,2.29c.71,0,2.24.21,4.38,2.08,3.08,3.26-14-2,.41,4.11-1.9,3.57-10-5.38-8.37-2.2,6.63,6.84-5.93-.76,3.62,9.34-4.46-.19-4.72-.45-3.93,4.4-1-1.94-16.16,16.06-.4,21.11-.16,2.39-11.43-3-6.69,1.74l-1.89.62c2.83.71,0,2,1.22,3.19-3.91-.07-3.57,3.44-11.2,2.87,2.81-.71,5.67-10.25,2.06-8.08,3.66-10.33-11.79,4.43-1.5-8.47-4.59,2.3-3.55-1.59-1.41-9.13a12.18,12.18,0,0,1-5.82,3.37c1.1-3.07,2.11-6.08,4.42-8.49-9.42,5.73,2.81-5.76-7.2-.23,3.24,6-6.09,7-3.88,11.08,2.74,3,2.36,5.22-6.56,12.22l5.22.25c-8,7-.81-1.52,1.89,7.17-4.25-3.44-7.49,6.6-9.87-6,.32,1.53-8.48,7.19-9,2.7,4.23-2.51,5.4-.25,3.75-15.71-2.68,2-14,11.16-3-3.16-2,.94-9.55,1.67-5.1.5,6.48-6.46,1-.25,4.45-12.08-7.64,6.32-7.56,3.56-2.72-5.61-10.94,7,5-7.25-7.73-.53.45,1.36.26,14.78-6.17,9,1.21,3.09.57,2.83,6.06,10.4-12.52-3.08,4.42-1.33-12.66,8,2.19-.16,4.29.51,6.48.26-9.63,9-1.15-2.14,2.35,8.61-3-.75-14.87-3-.39,4.47-2.27,5.73-13.93-11.73-11.15-2.17,8.11,2.34-7.45,5,4.63,9.85,5.69,5.46-13.26-.62-4.65,4.46-2.38,1-7.48,4.69-6.77-4.61,1.72-.53.15.67,6-1.6-7.35,2.18,2.57-6.88-1.8-9.08-1.83.32-1.86,6.33-9,2.06,3.38-1.37,6.94,1.72,3.83-12.89-4.37,3.23-9.52,4.65-1.61-3.46-10.19,4.15,6.05-13.75-8.13-5.79-2.31-1.57,13.07-12.23-.58-6.62,9.93-11.3-13.18,4.38-2.32,14.16-12.33-1.83,4.3-.9-11.78,7l6,.26a20.49,20.49,0,0,1-3.79,2.88c.8-.2,2.92-.27,5.35,2.64,3.36,3.69-16-1.49.52,5.18-2.4,4.5-12.64-6.79-10.56-2.78,8.36,8.64-7.48-1,4.57,11.79-5.71,1.65-6.44-4-4.89,6-8.48-2.58,3.94,1.92-8,5.8-3-.49,7.51,10,.33,5.58-7.87-3.71,4.18,4.13-.8,6.7-.09-1.92-9.32,11.68-12.72,4.24,1.13-.26,2.2-.38,3.26-.68-2.89.16,5.21-11.76-2.33-5.52-6.88,3.47,2.9-7.33-1.39-7,2.9-8.18-9.35,3.51-1.19-6.71-3.47,1.57-2.93-.69-1.12-7.24a9.57,9.57,0,0,1-4.61,2.67c.87-2.43,1.67-4.81,3.5-6.73-7.42,4.53,2.18-4.53-5.7-.18-4.88,10.19,2.09,10-8.28,18.47l4.14.19c-6.66,5.62-1.24-1.13,1.5,5.69-3.37-2.73-5.94,5.23-7.82-4.72.25,1.2-6.73,5.7-7.15,2.13,3.34-2,4.27-.2,3-12.44-.37.33-11.93,9.44-2.06-2.93-5.13,1.66-3.34,1.6-.84-8.76-6.05,5-6,2.82-2.15-4.44-8.67,5.5,4-5.75-6.13-.42.35,1.07.21,11.71-4.89,7.17,1,2.45.45,2.24,4.81,8.24-9.52-2.48,2.83-1.07-10,6.37,1.73-.13,3.4.41,5.13.21-7.63,7.11-.91-1.7,1.86,6.82-3-.63-11.92-2.27-.3,3.54-9.64-4.45-11.38.83-5.17,6.09,4.51,4.33-10.5-.49-3.68,3.54-1.89.82-5.93,3.71-5.37-3.66,1.36-.42.12.53,4.73-1.26-7-2.1,7.26-6.92-8.59-5.57,3.24-.9,5.29.38,3-10.22-3.47,2.56-7.55,3.69-1.28-2.74-8.77,4.23,5.75-11.47-6.45-4.58,6.34-9.23-1.12-2.63,1-7.29,5.49-4.86-12,4.29-3.32,13.26-9.78-1.45,3.4-.71-9.34,5.58l4.79.21a13.34,13.34,0,0,1-3.14,2.29c.71,0,2.24.21,4.38,2.08,3.08,3.26-14-2,.41,4.1-1.9,3.57-10-5.38-8.38-2.2,6.64,6.85-5.92-.75,3.63,9.35-4.58-.2-4.74-.48-3.88,4.78-6.09-2.33,2.36,1.44-6.3,4.59-2.92,2.82,8.58,5.91-1.38,5-2.65.09,7.55,3.74-1,4.31-.53,3-18.69,16-3.8-2.62-2.33,1.55-12,2.11-6.22.63,7.9-7.87,1.16-.31,5.43-14.74-9.33,7.71-9.23,4.35-3.32-6.84-13.39,8.5,6.17-8.87-9.44-.65,0,.74.62,18.8-7.53,11,1.42,3.44.33,3,7.41,12.7-15.36-3.73,5.48-1.72-15.45,9.8,2.67-.2,5.23.63,7.9.32-2.42,1.83-12.85,9.3-2.44,4.39,17,12.16-16.63-4,3.18,12.34-6.11-1.43-18.11-8.75-9.07-2.64,3.37,8.66-10.26-1.76,1.48,12.51-6.29.13-12.61,12.23-12.64-1.46,2.09-.64.17.82,7.28-2-12.56-.49,12.8-11.93-10-9,3.39-2.63,5.66-10.88,1.62-9.22,6-15.52-17.87,9.38-2.09-10.27-12.44,5.06,7.38-16.78-9.93-7.06,12.48-19.8-2.57-1.26,1.58-11.22,7.53-9.26-18.48,11.18-5.11,20.41a57.39,57.39,0,0,1-6.7-1.63c1.3.62,6,3.8-7.68,10.22l7.37.32a25,25,0,0,1-4.62,3.51c1-.24,3.56-.33,6.53,3.22,4.1,4.51-19.46-1.82.64,6.32-4.31,6-16.14-11.35-12.92-1.36,9.66,6.28-8.16-1.71,5.6,12.35-7,2-7.86-4.86-6,7.36-2.65-3.36-7.35,1.14-1.79,3.15-3.84.32-25.33,17.25-9.18-2.61-2.38,1.54-11.93,2.08-6.21.61,7.91-7.87,1.17-.31,5.43-14.74-9.32,7.71-9.23,4.35-3.32-6.84-13.38,8.5,6.18-8.87-9.43-.65,0,.75.62,18.8-7.53,11,1.41,3.44.33,3,7.41,12.7-15.37-3.73,5.48-1.72-15.45,9.8,2.66-.2,5.23.63,7.9.32-2.42,1.83-12.85,9.3-2.44,4.39,2-1,13,8.83-4.11,5.12,5.5,4.12,14.57,14.87-5.46-.58,4.8,6.67-2.06,11,5,17.19-6.59,1.31-12.12,12.3-12.52-1,1.83-.56.6.48,5-1.09-4.28.09,8-17.8-2.84-8.88-.52-.76-4,4.05-8.1-.54,5.55,3.06,10.27-15,3.7-8.46,9.38-17.64-17.18,8.1-1-11.49-12.43,5.06,7.38-16.78-9.92-7.06,12.47-19.8-2.57-1.26,1.58-11.22,7.53-9.25-18.48,11.19-5.11,20.41a57.39,57.39,0,0,1-6.7-1.63c1.3.63,6,3.8-7.68,10.22l7.37.32a25.83,25.83,0,0,1-4.62,3.52c1-.25,3.56-.33,6.53,3.21,4.1,4.51-19.46-1.81.63,6.32-4.3,6-16.14-11.35-12.91-1.36,9.65,6.28-8.17-1.71,5.6,12.35-7,2-7.86-4.86-6,7.36-11.14-4.47,4.71,5.51-7,5.14l-2,.79c1.12-1.72,1.72-2.16-1.08-.87-3,6.35,1,6.4-5.16,11.5l2.58.13c-4.15,3.49-.77-.71.94,3.54-6.53,1.15.29-3.08-9.33-1.61,2.56-1.26,2.44-1,1.85-7.75-.24.2-7.44,5.88-1.28-1.83-.7-.84-4.51,5.39-.53-5.46.85-1.07-6.22,6.56-1.34-2.76-5.37,3.41,2.46-3.57-3.82-.27.22.67.13,7.3-3,4.47.64,1.35-.31.11,3,5.14-5.85-1.6,1.66-.66-6.25,4,1.08-.07,2.12.26,3.2.13-1,.75-5.21,3.77-1,1.78,7.25,3.53-8.17-.18,2,4.68-5-2.72-7.68.68-3.22,3.8,2.81,2.69-6.55-.31-2.3,2.2-2,1.39-3.13.79-3.34-2.28a7.39,7.39,0,0,0,3-.79c-5.8-.46,6.94-5.63-5.36-3.47,8.33-5-4.71-3.82,1.1-8.07-5.47,2.63,3.58-7.15-4-2.86,5.61-8.06-6.7-4.27-1.43,3.72-3.87-.73.36-.13-5.82,3.48l3,.13a7.75,7.75,0,0,1-2,1.43,4,4,0,0,1,2.75,1.29c1.84,2-8.59-1.14.25,2.56-1.18,2.23-6.24-3.35-5.21-1.37,1.19,3.84.78,4.08-.16,8.8-1.6-1.71-2.88,1.18,0,1.3-.19.08-.12.2-.55,0-8.5,2.79,1.52,2.79-4.24,4.53-.18.9.27-.14,1,1.7,0-.47-2.85,2.88-2.85.6a12.11,12.11,0,0,1,1.75-2.27c-.83.25-2,.52-3.47.84-4.88,10.19,2.1,10-8.27,18.47l4.13.19c-6.66,5.62-1.23-1.13,1.51,5.69-3.37-2.73-5.94,5.23-7.83-4.72.25,1.2-6.72,5.7-7.15,2.13,3.35-2,4.28-.2,3-12.44-.38.33-11.94,9.44-2.06-2.93-5.13,1.66-3.34,1.6-.84-8.76-6.06,5-6,2.82-2.16-4.44-8.67,5.5,4-5.75-6.13-.42.36,1.07.21,11.71-4.89,7.17,1,2.45.46,2.24,4.81,8.24-9.51-2.48,2.83-1.07-10,6.37,1.73-.13,3.4.41,5.13.21-7.63,7.11-.91-1.7,1.86,6.82-3-.63-11.92-2.27-.3,3.54-9.65-4.45-11.38.83-5.17,6.09,4.51,4.33-10.51-.49-3.68,3.54-1.89.82-5.94,3.71-5.37-3.66,1.36-.42.11.53,4.73-1.26-7-2.1,7.26-6.92-8.6-5.57,3.25-.9,5.3.38,3-10.22-3.46,2.56-7.55,3.69-1.27-2.74-8.77,4.23,5.75-11.47-6.45-4.59,6.34-9.22-1.13-2.62,1-7.28,5.49-4.86-12,4.29-3.31,13.26-9.78-1.45,3.4-.71-9.34,5.58l4.78.21a12.93,12.93,0,0,1-3.14,2.29c.72,0,2.25.21,4.39,2.08,3.07,3.26-14-2,.41,4.1-1.9,3.57-10-5.38-8.38-2.2,6.63,6.85-5.92-.75,3.63,9.35-4.47-.2-4.73-.45-3.94,4.4-1-1.94-16.15,16-.39,21.1-.17,2.39-11.44-3-6.7,1.74l-1.89.63c2.84.71,0,2,1.22,3.18,6.62,14.62-4.68-3.48-2.86,8.46,1.82,1.76,9.52,1.81,2.53,3.91,17.05-.76,1,23.39-14.72,25.52,5.44-5.62,6.92-1.09,4.9-20.2-3.23,2.4-17.2,13.69-3.62-3.91-2.27,1.57-12,2.14-6.26.66,7.9-7.87,1.16-.31,5.43-14.75-9.33,7.72-9.23,4.35-3.32-6.83-13.39,8.49,6.17-8.87-9.44-.65,0,.74.62,18.8-7.52,11,1.41,3.44.32,3,7.4,12.7-15.36-3.73,5.48-1.71-15.45,9.8,2.67-.19,5.24.63,7.9.33-14.15,11,4.35-2.43.85,10.46.21.54-9-5.15-6.8,1.28,18.56,13.53-10-7.69-5.25,1.56,10,3-9.25,5.88,5.64,12,6.91,6.63-15.91-.67-5.82,5.35-1.17.11-8.11,8-8.11-5.53,2.09-.65.17.81,7.28-1.95-12.56-.5,12.8-11.94-10-9,3.39-2.63,5.66-10.88,1.62-9.22,6-15.52-17.87,9.37-2.09-10.28-12.44,5.06,7.38-16.77-9.93-7.06,12.48-19.8-2.57-1.26,1.58-11.22,7.53-9.25-18.48,11.19-5.11,20.41a58.6,58.6,0,0,1-6.7-1.62c1.3.62,6,3.79-7.68,10.21l7.37.33a25.53,25.53,0,0,1-4.62,3.51c1-.24,3.57-.33,6.53,3.21,4.1,4.51-19.46-1.81.64,6.32-4.31,6-16.14-11.34-12.92-1.35,9.66,6.28-8.16-1.71,5.6,12.35-7,2-7.86-4.86-6,7.36-2.68-3.41-7.46,1.25-1.57,3.22-18,2.51,2.19,15.18-7.73,10.67-4.94-3.65-3.3,1.48,1.36,6.42-8.29,2-6.41,4.7,7.24,11.59-1.67,4.11-17.28-4.7-10.31,2.68l-2.9,1c4.36,1.09.06,3.07,1.88,4.91-2.62,3,2.72,3.78,2.35,9.39-8.79-6.65-11.16,1.22.7,8-10.31-1.5,4.07-1.56-9.45,6.5l2.3.11-3.42,3.16c-13.35-.37-5.21,7.87-6.26-13.89-.44.4-13.53,10.68-2.79-2.91-1.83.86-8.76,1.53-4.68.46,6-6,.88-.24,4.1-11.13-7,5.82-7,3.28-2.51-5.15-10.07,6.39,4.64-6.68-7.11-.49.41,1.24.24,13.6-5.68,8.32,1.12,2.85.53,2.61,5.58,9.58-11-2.89,3.29-1.25-11.65,7.39,2-.14,4,.48,6,.25-8.86,8.25-1.06-2,2.16,7.92-2.8-.7-13.68-2.81-.35,4.11-2.09,5.27-12.83-10.79-10.26-2,8.13,2.88-7.74,3.59,4.26,9.06,5.23,5-12.21-.57-4.28,4.1-2.19,1-6.89,4.32-6.24-4.24,1.58-.48.14.62,5.5-1.47-8.14-2.44,8.43-8-10-6.46,3.11-1.26,6.39,1.58,3.53-11.87-4,3-8.77,4.29-1.48-3.18-10.19,4.91,6.67-13.33-7.49-5.33,9.39-14.9-1.93-1,1.19-8.46,6.61-5.7-14.08,5-3.85,15.4-11.36-1.68,4-.82-10.85,6.48l5.56.24a18.77,18.77,0,0,1-3.49,2.65c.74-.18,2.69-.25,4.93,2.43,3.09,3.4-14.68-1.37.48,4.77-2.21,4.14-11.64-6.25-9.73-2.56,7.7,8-6.88-.88,4.21,10.85-5.25,1.52-5.93-3.67-4.5,5.55-7.68-2.36,3.53,1.8-7.32,5.33-1.72.52,5.33,10.51.35,3.79a2.33,2.33,0,0,0-.36,1.14c-1.63-1.27-3.5-.71-.57,2.38-2.11.77,3.78,1.61,1.14,3.54-4.88-1.47-.44,2.76-1.35,5.31,1.2,2.49-.18.82-2.38,5.33,2.52,1.69,1.1,1.7-1.64,1.17,1.28,1.66-.87-.38,3.92,6.45-1.85.6-6-3.85-2.58,1.44-.88-1-3.63-1.78-1.45,2-2.41-.74-1-1.67-4.15,2.13,1.14.21.08-.33,4,.38-6.65,5.28-.89-1.22,1.63,5.49-3.37-2.72-5.94,5.24-7.82-4.71.25,1.2-6.73,5.69-7.15,2.13,3.34-2,4.27-.2,3-12.44-.37.33-11.93,9.44-2.06-2.93-5.13,1.66-3.34,1.6-.84-8.76-6,5-6,2.82-2.15-4.44-8.67,5.5,4-5.75-6.13-.43.35,1.08.21,11.72-4.89,7.17,1,2.45.46,2.25,4.81,8.25-9.52-2.48,2.83-1.08-10,6.37,1.73-.13,3.4.41,5.14.21-7.64,7.11-.92-1.7,1.86,6.82-3-.63-11.92-2.27-.31,3.54-9.64-4.45-11.38.83-5.17,6.09,4.52,4.33-10.5-.49-3.68,3.54-1.89.82-5.93,3.71-5.37-3.66,1.36-.42.12.53,4.73-1.27-7-2.09,7.26-6.92-8.59-5.56,3.24-.9,5.29.38,3-10.22-3.47,2.56-7.55,3.69-1.28-2.74-8.77,4.23,5.75-11.48-6.44-4.59,6.34-9.22-1.13-2.62,1-7.28,5.49-4.87-12,4.29-3.32,13.26-9.78-1.45,3.4-.71-9.34,5.58l4.79.21a13.34,13.34,0,0,1-3.14,2.29c.71-.05,2.24.21,4.38,2.08,3.08,3.26-14-2,.41,4.1-1.9,3.57-10-5.38-8.37-2.2,6.63,6.85-5.93-.76,3.62,9.34-4.46-.19-4.72-.44-3.94,4.41-1-1.94-16.15,16-.39,21.1-.16,2.39-11.44-3-6.69,1.74l-1.89.63c2.83.71,0,2,1.22,3.18,6,8.28-11.77,3.27,2.12,10.32,2.5.31-7.22,3.17,2.91,2.7q-10.45,8-21.31,16c3.78-7.16-8.15,1.42-1.16-6.44-2.41,1.09-2-.48-.77-5a6.63,6.63,0,0,1-3.22,1.86,12.61,12.61,0,0,1,2.44-4.69c-5.17,3.16,1.53-3.16-4-.12-3.35,7,1.14,6.67-5.77,12.87l2.88.14c-4.64,3.91-.86-.8,1.05,4-7.3,1.29.33-3.45-10.43-1.8,2.86-1.41,2.72-1.08,2.06-8.68-.26.23-8.32,6.59-1.43-2-.73-1-5.16,6.2-.59-6.11,1-1.2-7,7.34-1.5-3.09-6,3.82,2.75-4-4.27-.3.25.75.14,8.16-3.41,5,.7,1.51-.36.12,3.35,5.75-6.54-1.78,1.86-.73-7,4.44,1.21-.09,2.38.28,3.58.15-1.1.82-5.82,4.21-1.1,2,8.14,4-9.2-.24,2.19,5.24-5.63-3-8.59.76-3.6,4.25,3.14,3-7.33-.35-2.57,2.46-2.25,1.55-3.51.89-3.75-2.55,1-.29.08.37,3.3-.88-6.23-.5,6.69-5.86-4.53-4.12,1.68-1.58,2.72-6.69-.31-3.07,5.86-9.24-7.66,3.74.08-5.73-6.12,3,4-8-4.49-3.19,6.27-9-7.5-4.79-1.6,4.16-4.39-.76.56-.37-6.52,3.89l3.34.15a8.72,8.72,0,0,1-2.21,1.6c.49,0,1.56.12,3.08,1.44,2.06,2.23-9.62-1.28.28,2.87-1.32,2.48-7-3.76-5.84-1.54,1.34,4.29.88,4.57-.17,9.85.74-2.4-12.5,9.48-.31,14.45-.12,1.66-8-2.1-4.67,1.21l-1.32.44c2,.49,0,1.38.85,2.22,5.45,10.39-8.29-4.62.82,8.35-1,.05-104.14,63.11-105.85,63.75-.27.14-73.32,40.3-93.8,137.09H2463.44Zm-1079.9,603.47h0a.51.51,0,0,0,.21-.1A.51.51,0,0,1,1383.54,1787.27Zm1.63,1,0,.18A.33.33,0,0,1,1385.17,1788.24Zm1.54-11.33a.36.36,0,0,1,.19-.11.24.24,0,0,1,.27.16C1387.11,1776.87,1387,1776.77,1386.71,1776.91Zm13.6,7.81a.22.22,0,0,1,.21.18A.22.22,0,0,0,1400.31,1784.72Zm.72.29c0-.33.19-.34.4-.34C1401.22,1784.67,1401,1784.68,1401,1785Zm.65-.34h0Zm16.07-11.14.29-.17A.67.67,0,0,1,1417.75,1773.53Zm1.76,5.88c1.53-.61-1.29-3,2.1-3.22C1424.27,1777.06,1423.93,1782.6,1419.51,1779.41Zm45.22-73a.63.63,0,0,1,.28-.16.35.35,0,0,1,.42.28C1465.37,1706.37,1465.14,1706.14,1464.73,1706.38Zm14.62-9.85,1.84-1.62A14.22,14.22,0,0,1,1479.35,1696.53Zm-1.11.92.34-.27A2.12,2.12,0,0,1,1478.24,1697.45Zm7.11,20.21c.15-.22.51-.13.79-.15h.26A2.76,2.76,0,0,0,1485.35,1717.66Zm24.33-16.37-.18.12A.9.9,0,0,1,1509.68,1701.29Zm2.1,8.67c-2.41-3.47,10.9-8.45,0,0Zm5.72-6.38h0a.64.64,0,0,1,.2.33A.64.64,0,0,0,1517.5,1703.58Zm11.27-27.3a5.69,5.69,0,0,1,1.54.91C1530,1677.79,1525.84,1679.55,1528.77,1676.28Zm4.9,2.43h0C1531.6,1678.16,1530.85,1677.59,1533.67,1678.71Zm.9-17.14s.08-.07.1-.12S1534.63,1661.55,1534.57,1661.57Zm1.65,2.84a.4.4,0,0,0,.37-.12A.4.4,0,0,1,1536.22,1664.41Zm3.17-19.78a.67.67,0,0,1,.33-.19.39.39,0,0,1,.48.32C1540.13,1644.61,1539.87,1644.35,1539.39,1644.63Zm15.26-10.23.43-.15A1.39,1.39,0,0,1,1554.65,1634.4Zm8.69,23.32a.48.48,0,0,1,.39-.17A.48.48,0,0,0,1563.34,1657.72Zm.91-.17h0Zm55.75-81.82.08-.13C1620,1575.69,1620,1575.71,1620,1575.73Zm2.16,3.79a1,1,0,0,0,.36-.07C1622.36,1579.5,1622.35,1579.54,1622.16,1579.52Zm-.22,0a.09.09,0,0,1,.07,0Zm4.24-25.74a.69.69,0,0,1,.59-.69.51.51,0,0,1,.61.29C1627.08,1553.18,1626.6,1552.68,1626.18,1553.74Zm24.34-16.94a17.39,17.39,0,0,1-2.12,1.68C1648.63,1538.31,1649,1538,1650.52,1536.8Zm-4.34,3,.47-.1A2.85,2.85,0,0,1,1646.18,1539.85Zm10.41,30.73a.45.45,0,0,1,.24.28A.45.45,0,0,0,1656.59,1570.58Zm1.4.29c.14-.61.8-.41,1.31-.45l.39,0C1658.85,1570.44,1659.42,1570.33,1658,1570.87Zm58.66-87.89c0,.08,0,.09-.09.11A.87.87,0,0,0,1716.65,1483Zm-.93,33.6a1.47,1.47,0,0,0-.1-.13,11.56,11.56,0,0,1,2.84.43C1718,1517.06,1717.86,1518.84,1715.72,1516.58Zm4.89-47.8a.47.47,0,0,1,.38-.45.35.35,0,0,1,.44.35S1721,1467.92,1720.61,1468.78Zm14.75-10.15c.34-.33.87-.82,1.82-1.6A15.43,15.43,0,0,1,1735.36,1458.63Zm-.85.7a2.05,2.05,0,0,1-1.2.49C1734,1459.57,1734.28,1459.45,1734.51,1459.33Zm31.43,3.94c-.14.08-.32.18-.55.33A2.8,2.8,0,0,1,1765.94,1463.27Zm.34-.14.36-.16A.8.8,0,0,1,1766.28,1463.13Zm4.49,4.32c.77.33.09.43,4,4.22C1773.52,1473.17,1762.27,1475.25,1770.77,1467.45Zm16.33-28.09c.16.55.4.47-.81,1.13A5.89,5.89,0,0,1,1787.1,1439.36Zm-2.79,5.81a37.07,37.07,0,0,1,1.47-3.73c.43.17.3,1.26,2.2,1.92.36.73-3.56.5-2.63,1.46C1785,1445,1784.66,1445.07,1784.31,1445.17Zm2.93,5.64,0-.1S1787.28,1450.76,1787.24,1450.81Zm-1,4.24a.59.59,0,0,1-.1-.41C1786.89,1454.14,1788.35,1454.74,1786.26,1455.05Zm1.63-10.11c.75-.48.45-1.45,2.34-.47A2.75,2.75,0,0,1,1787.89,1444.94Zm3.33,11.52a.93.93,0,0,1-.18-.32,3.56,3.56,0,0,1,.47.1A1.3,1.3,0,0,1,1791.22,1456.46Zm.47,2.48a2.8,2.8,0,0,1,.06-.28C1791.78,1458.77,1792,1458.81,1791.69,1458.94Zm1.59-32.76a.32.32,0,0,1,.17-.1.2.2,0,0,1,.24.14C1793.63,1426.14,1793.5,1426.05,1793.28,1426.18Zm8.19-5.49.23-.08A.83.83,0,0,1,1801.47,1420.69Zm1.26,3.8a2.8,2.8,0,0,1,.81-.39A5.46,5.46,0,0,0,1802.73,1424.49Zm4,8.62h0Zm14.85-10.23.63-.35C1822.05,1422.68,1822,1422.68,1821.53,1422.88Zm1.56,4.48c1.3-.17-2-1.86,1.38-1.83C1829.08,1427.31,1822.13,1432.18,1823.09,1427.36Zm12-11c.34.22,0,0,.55,1.06C1835.25,1417.9,1832.8,1417.86,1835.11,1416.34Zm13.15-26.91a.7.7,0,0,1,.58-.7.56.56,0,0,1,.62.29C1849.16,1388.87,1848.68,1388.36,1848.26,1389.43Zm20.39-14,.56-.2A1.71,1.71,0,0,1,1868.65,1375.43Zm3.11,9.38a.79.79,0,0,0,.47-.24A.79.79,0,0,1,1871.76,1384.81Zm47-21.87a3.48,3.48,0,0,1,.81,1C1919.17,1363.65,1919.16,1363.87,1918.81,1362.94Zm2.69,5.35c-.45-.4-.57-.08.13-1.34A1.35,1.35,0,0,1,1921.5,1368.29Zm6.67-6.77a1,1,0,0,0,.08-.14C1928.21,1361.47,1928.2,1361.5,1928.17,1361.52Zm2.29,3.79a1.81,1.81,0,0,1-.35,0A.87.87,0,0,0,1930.46,1365.31Zm.08,0,.15-.06Zm3.81-25.77a.69.69,0,0,1,.59-.69.54.54,0,0,1,.61.29C1935.25,1339,1934.77,1338.46,1934.35,1339.52Zm24.34-16.94a18.49,18.49,0,0,1-2.12,1.69C1956.8,1324.09,1957.16,1323.83,1958.69,1322.58Zm-4.34,3.06.47-.1Zm20.57,16.13,1.11-1.19C1976.11,1341.31,1976.4,1341,1974.92,1341.77Zm30-15.3c-.76-.35-.23,1.67-3.34.61C2001.31,1325.92,2005.8,1323.42,2004.91,1326.47Zm2.7-4.26c.37-1,.26-.57-.73-3.1C2010.53,1320.5,2008.34,1326.81,2007.61,1322.21Zm-.5-3.93c.06-.15.12-.29.19-.44l.22.14A1.5,1.5,0,0,0,2007.11,1318.28Zm.84-1.67c.09-.18.15-.35.22-.53a.61.61,0,0,1,0,.24A.34.34,0,0,1,2008,1316.61Zm3.37,2.51a1.57,1.57,0,0,0-.34-.21,1.57,1.57,0,0,1,.34.21Zm-6-7.24c1.71-4.74,3.84-2.7,9.59.55C2013.62,1311.65,2003.87,1315.8,2005.29,1311.88Zm11.79-11.78a3,3,0,0,1,.5-.87C2017.54,1299.93,2017.35,1300.12,2017.08,1300.1Zm2.7-17a.49.49,0,0,1,.28-.16.34.34,0,0,1,.42.27C2020.42,1283.05,2020.19,1282.82,2019.78,1283.07Zm20.55,11.61c0-.63.48-.46.86-.49l.26,0C2040.82,1294.21,2041.26,1294.1,2040.33,1294.68Zm24-16.46a2.37,2.37,0,0,1,.42-.25A1.14,1.14,0,0,1,2064.3,1278.22Zm5.54,3.8c1,.45-.36.24,3.93,4C2073.17,1287.8,2061.18,1290.16,2069.84,1282Zm41.92-12.32a1.15,1.15,0,0,0,.4-.18C2112.06,1269.59,2112.16,1269.52,2111.76,1269.7Zm2.45,2.76a.48.48,0,0,0,.36-.28A.48.48,0,0,1,2114.21,1272.46Zm3.29-21.5a.8.8,0,0,1,.36-.21.44.44,0,0,1,.53.36C2118.31,1250.94,2118,1250.65,2117.5,1251Zm3.46,5.38-.1-.11S2120.92,1256.28,2121,1256.34Zm14.7-17.57c.26-.22.7-.57,1.66-1.34A13.51,13.51,0,0,1,2135.66,1238.77Zm-1.89,1.17.39-.08Zm.78-.26.45-.37A1.59,1.59,0,0,1,2134.55,1239.68Zm7.58,25.41a.35.35,0,0,1,.33.23A.35.35,0,0,0,2142.13,1265.09Zm1.32.27c.12-.49.66-.34,1.07-.36h.3C2144.14,1265,2144.62,1264.93,2143.45,1265.36Zm30.59-20.73a11,11,0,0,1,1.41-.64C2175.21,1244.16,2175,1244.16,2174,1244.63Zm3.65,9.42c1.5-.91-2.89-3.9,3-4.41C2182.24,1251.85,2184.89,1252.1,2177.69,1254.05Zm25.57-15c.41-.36,1-.87,1.81-1.65a18.07,18.07,0,0,1-1.56,1.47Zm-1.54,1.16a1.25,1.25,0,0,1,.4-.3Zm22.11-19.79a.78.78,0,0,0,0-.16C2223.85,1220.36,2223.85,1220.39,2223.83,1220.41Zm4-14.36a.55.55,0,0,1,.28-.16.34.34,0,0,1,.42.28C2228.51,1206,2228.29,1205.81,2227.87,1206.05Zm13.14-8.81.37-.13A.87.87,0,0,1,2241,1197.24Zm7.41,20.42c0-.63.49-.46.86-.48h.27C2248.92,1217.19,2249.35,1217.09,2248.42,1217.66Zm3.62,5.24a.72.72,0,0,1,.16-.46A.72.72,0,0,0,2252,1222.9Zm20.49-21.82c.22-.11.58-.28,1.27-.55A11.65,11.65,0,0,1,2272.53,1201.08Zm5.4,3.93c1.15.54-.55.07,3.83,3.88C2280.61,1211.91,2269.49,1211.55,2277.93,1205Zm24-1.43a.72.72,0,0,1,.08.69.49.49,0,0,1-.16.16A6,6,0,0,1,2302,1203.58Zm-2.2,8.39a1.53,1.53,0,0,1-.62-.64C2299.34,1211.36,2300.3,1211.05,2299.77,1212Zm-.71-2.58c.42-.36,2.08-1.19-.22-2.23C2302.35,1206.1,2306.79,1212.74,2299.06,1209.39Zm5.12-3.17c.22-.09.3-.26.51-.06A.52.52,0,0,0,2304.18,1206.22Zm-1.33-5.58c2.19,1.2.13.11,5.51,2.3C2307.82,1203.48,2302.83,1204.94,2302.85,1200.64Zm14.47-3.22.37-.13A1.3,1.3,0,0,1,2317.32,1197.42Zm53.73-11.86c.19-.16,0,0,1.16-.29C2372,1185.65,2371.51,1185.61,2371.05,1185.56Zm-.41,2.65c0-.26,0,0,.09-.78C2371.12,1187.35,2371.43,1189.26,2370.64,1188.21Zm.91-5c.17.06.46,0,.29.63C2371.23,1184.63,2369.06,1183.78,2371.55,1183.2Zm-1.46,8.27c1.13-.3,2.42-4.17,4.12-.89C2372.59,1191.49,2374,1190.89,2370.09,1191.47Zm4.29-4.29a.55.55,0,0,1,.28-.16.34.34,0,0,1,.42.28C2375,1187.17,2374.8,1186.94,2374.38,1187.18Zm13.14-8.8.37-.13A1.3,1.3,0,0,1,2387.52,1178.38Zm36.92,7.76c.7.53.18-.11,2.74,3.25C2425.71,1190.84,2417.6,1189.17,2424.44,1186.14Z"/>
<path class="cls-10" d="M2439.81,1775.94a4023,4023,0,0,0-485.5-263.56c-63.17-28.86-355.76-160.59-683.94-240.79-179.1-43.77-797.59-194.92-1270.12-98v834.82H2447.74C2467.09,1941.44,2454.77,1821.84,2439.81,1775.94Z"/>
</svg>
